<svg width="24" height="24" viewBox="0 0 24 24" fill="none" xmlns="http://www.w3.org/2000/svg">
  <style>
    path { fill: #353839; }
    @media (prefers-color-scheme: dark) {
      path { fill: #ffffff; }
    }
  </style>
  <path d="M11.665 1.3291C11.8761 1.22364 12.1249 1.22357 12.3359 1.3291L12.3398 1.33203C12.3621 1.34363 12.4156 1.37055 12.4453 1.38672C12.5092 1.42144 12.5986 1.47166 12.7061 1.53613C12.9205 1.6648 13.2129 1.85417 13.5234 2.0957C13.9843 2.45417 14.546 2.97549 14.9268 3.63672C15.5701 3.38786 16.2688 3.25 17 3.25C17.4142 3.25 17.75 3.58579 17.75 4V8C17.75 10.9213 15.5711 13.3316 12.75 13.6992V16.7578C13.9875 15.2283 15.8793 14.25 18 14.25C18.4142 14.25 18.75 14.5858 18.75 15C18.75 15.4142 18.4142 15.75 18 15.75C15.1005 15.75 12.75 18.1005 12.75 21V22C12.75 22.4142 12.4142 22.75 12 22.75C11.5858 22.75 11.25 22.4142 11.25 22V21C11.25 18.1005 8.89949 15.75 6 15.75C5.58579 15.75 5.25 15.4142 5.25 15C5.25 14.5858 5.58579 14.25 6 14.25C8.12068 14.25 10.0125 15.2283 11.25 16.7578V13.6992C8.42888 13.3316 6.25 10.9213 6.25 8V4C6.25 3.58579 6.58579 3.25 7 3.25C7.73063 3.25 8.4291 3.38803 9.07227 3.63672C9.45315 2.97508 10.0165 2.45429 10.4775 2.0957C10.7881 1.8542 11.0795 1.66479 11.2939 1.53613C11.4015 1.4716 11.4908 1.42147 11.5547 1.38672C11.5843 1.37062 11.6377 1.34372 11.6602 1.33203L11.665 1.3291ZM12 2.8623C11.8322 2.96562 11.6203 3.10677 11.3984 3.2793C10.9985 3.5904 10.6245 3.96001 10.3896 4.35449C10.6145 4.51879 10.8271 4.69914 11.0254 4.89355C11.3211 5.18353 11.3251 5.65835 11.0352 5.9541C10.7452 6.24979 10.2704 6.25478 9.97461 5.96484C9.37681 5.37888 8.60826 4.96808 7.75 4.81543V8C7.75 10.3472 9.65279 12.25 12 12.25C14.3472 12.25 16.25 10.3472 16.25 8V4.81641C14.2605 5.17067 12.75 6.90873 12.75 9C12.75 9.41421 12.4142 9.75 12 9.75C11.5858 9.75 11.25 9.41421 11.25 9C11.25 7.09247 12.1793 5.40245 13.6094 4.35645C13.3746 3.96167 13.0028 3.5906 12.6025 3.2793C12.3806 3.10667 12.1678 2.96567 12 2.8623Z"/>
</svg>
